name processed_emg_signals
nRows=66
nColumns=7
 
endheader
time	RGLTMED	RRF	RADDLONG	RST	RTA	RGM
2.015	0.1091600273596262	0.0308677333554061	0.2791951620465831	0.178765643815723	0.4260141107764926	0.2965262930617917
2.016	0.107273160831172	0.0297113644593479	0.2815731347903852	0.1821965184764991	0.4244608334409521	0.294307962458859
2.017	0.1054464467043683	0.0286181079398717	0.2839865015067604	0.1856383427351805	0.4228970095047418	0.292055128714866
2.0180000000000002	0.103680755195596	0.0275873827887346	0.2864333583708092	0.1890887387405345	0.4213253145899943	0.2897688436900602
2.019	0.1019768630606083	0.0266185561399227	0.2889117605088697	0.1925452818281349	0.4197485079074491	0.2874501697225518
2.02	0.100335453303434	0.0257109451482578	0.2914197251454002	0.1960055026097015	0.418169428288944	0.2851001791638982
2.021	0.0987571150429123	0.0248638188928908	0.2939552348261315	0.1994668891676728	0.4165909899625324	0.2827199538838766
2.0220000000000002	0.0972423435351334	0.024076400302336	0.2965162407114603	0.2029268893528164	0.415016178081375	0.2803105847458426
2.023	0.0957915403497756	0.0233478680977818	0.2991006659344927	0.2063829131825124	0.4134480440185573	0.2778731710541003
2.024	0.0944050136978971	0.0226773587512869	0.30170640901742	0.2098323353368489	0.4118897004399711	0.2754088199744449
2.025	0.0930829789085618	0.0220639684557103	0.3043313473399582	0.2132724977494604	0.4103443161673996	0.272918645928808
2.0260000000000002	0.0918255590512224	0.0215067551030699	0.306973340653405	0.2167007122896564	0.4088151108437105	0.2704037699647531
2.027	0.0906327857006824	0.021004740268134	0.3096302346334181	0.2201142635320958	0.4073053494116943	0.2678653191007464
2.028	0.0895045998410732	0.0205569111942252	0.3122998644646898	0.2235104116099693	0.4058183364177801	0.265304425648543
2.029	0.0884408529051987	0.0201622227781518	0.3149800584508235	0.22688639514755	0.404357410151637	0.2627222265145746
2.0300000000000002	0.0874413079453785	0.0198195995514395	0.3176686416428899	0.230239434267854	0.4029259366330799	0.260119862482933
2.031	0.0865056409316846	0.0195279376550986	0.3203634394808228	0.2335667336713014	0.4015273034579529	0.2574984774830423
2.032	0.0856334421733934	0.0192861068051929	0.3230622814418274	0.2368654857811244	0.4001649135146388	0.2548592178456199
2.033	0.0848242178592704	0.019092952246601	0.3257630046907127	0.2401328739515142	0.3988421785826664	0.2522032315507445
2.0340000000000003	0.0840773917122024	0.018947296692338	0.3284634577268262	0.243366075734143	0.3975625128244713	0.2495316674721671
2.035	0.0833923067536245	0.0188479422459261	0.3311615040229081	0.2465622661986541	0.3963293261814722	0.2468456746222044
2.036	0.0827682271728463	0.0187936723043413	0.3338550256500971	0.2497186213023358	0.3951460176855488	0.2441464014014912
2.037	0.0822043402963731	0.0187832534391897	0.3365419268834637	0.2528323213039704	0.3940159686972301	0.2414349948576716
2.0380000000000003	0.0816997586519891	0.0188154372539367	0.3392201377819528	0.2559005542166964	0.3929425360820785	0.2387125999566263
2.039	0.0812535221224972	0.018888962214964	0.3418876177369946	0.2589205192945792	0.3919290453367151	0.2359803588695158
2.04	0.0808646001838453	0.019002555454577	0.3445423589837044	0.2618894305477546	0.3909787836760085	0.2332394102787139
2.041	0.080531894222664	0.0191549345440477	0.3471823900688692	0.2648045202809316	0.3900949930923872	0.2304908887054494
2.0420000000000003	0.0802542399282848	0.0193448092350712	0.3498057792690475	0.2676630426502741	0.389280863398119	0.2277359238618543
2.043	0.0800304097546183	0.0195708831681261	0.3524106379520625	0.270462277233713	0.3885395252612967	0.2249756400295886
2.044	0.0798591154474999	0.0198318555463313	0.3549951238748259	0.2731995326098894	0.3878740432471136	0.2222111554669469
2.045	0.0797390106333031	0.0201264227734086	0.3575574444106316	0.2758721499410049	0.3872874088771783	0.2194435818457595
2.0460000000000003	0.0796686934648765	0.020453280054539	0.3600958596995761	0.2784775065550935	0.3867825337212086	0.2166740237191459
2.047	0.0796467093208502	0.0208111229587693	0.3626086857164025	0.2810130195234759	0.3863622425365104	0.2139035780207988
2.048	0.0796715535544648	0.0211986489419269	0.3650942972505566	0.2834761492292247	0.386029266471581	0.211133333596366
2.049	0.0797416742881031	0.0216145588288297	0.3675511307936598	0.2858644029224676	0.3857862363510351	0.2083643707672458
2.05	0.0798554752497747	0.0220575582537416	0.3699776873294521	0.2881753382583181	0.3856356760602584	0.2055977609269082
2.051	0.0800113186478545	0.0225263590579265	0.3723725350215325	0.2904065668135313	0.3855799960493315	0.2028345661695334
2.052	0.080207528080348	0.0230196806433663	0.3747343117947475	0.2925557575779996	0.3856214869765858	0.2000758389504564
2.053	0.0804423914748858	0.0235362512816692	0.3770617278065092	0.2946206404173427	0.3857623135121709	0.197322621777455
2.054	0.080714164055525	0.0240748093774813	0.3793535678043587	0.2965990095024404	0.3860045083217636	0.1945759469315472
2.055	0.081021071332268	0.0246341046858463	0.3816086933659708	0.2984887267012677	0.3863499662498432	0.1918368362153824
2.056	0.0813613121091272	0.0252128994830337	0.3838260450169439	0.3002877249278112	0.3868004387215972	0.1891063007268077
2.057	0.0817330615063647	0.0258099696905656	0.3860046442222961	0.301994011442139	0.3873575283817764	0.1863853406546438
2.058	0.0821344739925915	0.0264241059521364	0.38814359524599	0.3036056710951904	0.3880226839881779	0.1836749450932036
2.059	0.0825636864222768	0.0270541146631662	0.3902420868734149	0.3051208695112857	0.3887971955763917	0.1809760918717502
2.06	0.0830188210743246	0.0276988189528098	0.3922993939902277	0.3065378562006131	0.3896821899113043	0.1782897473945623
2.061	0.0834979886873298	0.0283570596182151	0.3943148790108329	0.3078549675934439	0.3906786262398067	0.1756168664870541
2.062	0.0839992914871342	0.0290276960108679	0.396287993148861	0.3090706299872159	0.3917872923581098	0.1729583922429645
2.063	0.0845208262022218	0.0297096068749584	0.3982182775221778	0.3101833623974102	0.3930088010062064	0.170315255867625
2.064	0.0850606870623839	0.0304016911375333	0.4001053640844726	0.3111917793029966	0.3943435866011141	0.1676883765123157
2.065	0.0856169687760918	0.0311028686504783	0.4019489763771427	0.312094593277297	0.3957919023196055	0.1650786610949784
2.066	0.0861877694820841	0.0318120808841728	0.4037489300956693	0.3128906174952315	0.3973538175405488	0.162487004102664
2.067	0.086771193670881	0.0325282915728136	0.4055051334672537	0.3135787681082067	0.3990292156562703	0.1599142873714104
2.068	0.0873653550720833	0.0332504873114172	0.4072175874374811	0.3141580664783303	0.4008177922617556	0.1573613798397594
2.069	0.0879683795034954	0.033977678104484	0.4088863856651857	0.3146276412640325	0.4027190537300139	0.1548291372726813
2.07	0.0885784076780722	0.0347088978664315	0.4105117143255013	0.3149867303496579	0.4047323161814176	0.1523184019533707
2.071	0.0891935979646942	0.035443204873899	0.4120938517207707	0.3152346826119134	0.4068567048545464	0.1498300023406893
2.072	0.0898121290987758	0.0361796821702464	0.4136331676991649	0.3153709595162396	0.4090911538857168	0.147364752690565
2.073	0.0904322028387014	0.0369174379225197	0.4151301228803795	0.3153951365362165	0.4114344065035317	0.1449234526402725
2.074	0.0910520465639536	0.0376556057314189	0.4165852676877694	0.3153069043890318	0.4138850156438449	0.1425068867552498
2.075	0.0916699158108569	0.0383933448948223	0.4179992411861889	0.3151060700799418	0.4164413449894835	0.1401158240389123
2.076	0.0922840967415347	0.0391298406255181	0.4193727697254645	0.3147925577492079	0.4191015704379149	0.1377510174066649
2.077	0.0928929085415743	0.0398643042238899	0.4207066653894725	0.3143664093159152	0.421863681999014	0.1354132031263312
2.078	0.0934947057417987	0.0405959732062677	0.42200182425134	0.3138277849146596	0.4247254861237829	0.1331031002281311
2.079	0.0940878804594122	0.0413241113899032	0.4232592244350054	0.3131769631227167	0.4276846084637319	0.1308214098881187
2.08	0.0946708645539472	0.0420480089354583	0.4244799239838605	0.3124143409770327	0.4307384970592084	0.1285688147894445
